<svg xmlns="http://www.w3.org/2000/svg" id="Layer_1" viewBox="0 0 533.9 507.3"><defs><linearGradient id="linear-gradient" x1="108.5" x2="413.9" y1="102.1" y2="382.3" gradientTransform="matrix(1 0 0 -1 -7.2 504.1)" gradientUnits="userSpaceOnUse"><stop offset="0" stop-color="#004b8d"/><stop offset=".2" stop-color="#5d7aaf"/><stop offset=".4" stop-color="#004b8d"/><stop offset=".6" stop-color="#004b8d"/><stop offset=".8" stop-color="#5f7bb0"/><stop offset=".8" stop-color="#5978ae"/><stop offset=".9" stop-color="#4970a8"/><stop offset=".9" stop-color="#2e629e"/><stop offset="1" stop-color="#084f90"/><stop offset="1" stop-color="#004b8d"/></linearGradient><linearGradient id="linear-gradient1" x1="381" x2="404.6" y1="273.9" y2="412.4" gradientTransform="matrix(1 0 0 -1 -7.2 504.1)" gradientUnits="userSpaceOnUse"><stop offset="0" stop-color="#f8f2e3"/><stop offset=".3" stop-color="#f7f1e0"/><stop offset=".6" stop-color="#f6edd5"/><stop offset=".8" stop-color="#f2e6c3"/><stop offset="1" stop-color="#efdfb0"/></linearGradient><linearGradient id="linear-gradient2" x1="128.5" x2="536.7" y1="262.1" y2="262.1" gradientTransform="matrix(1 0 0 -1 -7.2 504.1)" gradientUnits="userSpaceOnUse"><stop offset="0" stop-color="#f8f2e3"/><stop offset=".3" stop-color="#f7f1e0"/><stop offset=".6" stop-color="#f6edd5"/><stop offset=".8" stop-color="#f2e6c3"/><stop offset="1" stop-color="#efdfb0"/></linearGradient><radialGradient id="radial-gradient" cx="281.1" cy="250.4" r="291.6" fx="281.1" fy="250.4" gradientTransform="matrix(1 0 0 -1 -7.2 504.1)" gradientUnits="userSpaceOnUse"><stop offset="0" stop-color="#903a3e"/><stop offset="1" stop-color="#4a0003"/></radialGradient><radialGradient id="radial-gradient1" cx="194.7" cy="261.3" r="85.7" fx="194.7" fy="261.3" gradientTransform="matrix(1 0 0 -1 -7.2 504.1)" gradientUnits="userSpaceOnUse"><stop offset="0" stop-color="#f7f3ed"/><stop offset=".2" stop-color="#f1e8dc"/><stop offset=".4" stop-color="#ecdfcc"/><stop offset=".6" stop-color="#e9d9c3"/><stop offset="1" stop-color="#e8d7c0"/></radialGradient><style>.st2{fill:#231f20}.st8{fill:#fff}</style></defs><g id="texas"><path d="M532.2 289.7c-.3-3 0-14.6.2-24.7.1-6.5.3-12.4.3-14.9 0-6.3-2.7-9-5.8-14s-5.4-9.4-5.8-16.2-10.3-11.2-10.3-11.2l-1.8-69.3s-11.7-.4-15.2-5.4-10.8-4.5-13.5-5.4-13.9-9-17.5-9.9-9.9 3.6-16.1 4.5-14 1.8-16.6 1.4c-5.5-.9-9.4 3.8-14.3 4.7-3 .5-6 .6-9 .2-.9-4.1-14.6-6.6-17.3-3.4-6.1-6.3-16.6-.7-19.8-1.6s-8.3-4.5-10.1-4.9-3.6 3.2-7.6 3.2-7.6-4.5-9.4-7.2-5.4-4-11.7-2.7-8.1 1.8-11.7.4-11.2-8.6-14.4-9-10.8-7.7-10.8-7.7l-5.4 4.5c-3.1-3.1-10-7.8-18.5-12.3l-.8-87.6L144.5 0s-3.9 152-4.4 163.7.4 42.1.6 46.6c-2.7 1.8-126.3-4-140.6-4.4-1.3 13.7 12.9 25.2 19.6 30.1s13.9 17.6 19.8 19.8 14.6 11 18.6 14.1 13.2 12.6 15 24.7 6.3 19.4 8.1 26.5 17 21 25.5 25.5 16.8 11.9 28.5 12.8 18.3-16.2 22.4-21.6 11.6-14.3 15.7-14.7 29.6 0 29.6 0 3.6.9 9.4 7.6 18.7 18 23.6 22.1 10.2 21.3 21.4 42.9c2.1 4.1 3.8 7.3 5.7 10.3 8.1 13 15.4 17.8 20.2 22.2 5.8 5.4 8.3 17.9 8.8 25.6s3.7 18.4 14.5 27.4 22.1 11.9 28.4 13.2 17.5 9.9 25.1 9.9 10.6 4 19.5 2.7 7.6-12.3 7.6-15.5-11.8-12-12.2-15.1 1.2-11.5-1.1-13.3-3.2-5.6-3.2-10.1.4-10.9 2.2-14 7.7-7.7 9.7-11.1c3.6-6.1-.1-16.5 3.9-20.5s13.6-6 16.7-8.3 4-8.1 6.7-12.1 6.7-2.7 10.3-6.3c2.5-2.5 5.2-4.8 8-7l22-.5s11.8-8.3 18.1-14.6 7.6-23.5 8.5-28.4c.5-2.9 5.4-4.7 8.4-.3 3.3 4.7 6.9 5.7 12.3 5.7s14.3-6.4 17.9-10.9 5.8-8.1 12.6-12.6 4.9-17.6 4.5-22.5Z" style="fill:url(#linear-gradient)"/><path d="M527.6 265.3H266.8v137.1c8 12.7 14 17 18.7 21.2 5.7 5.3 9.2 18.9 9.7 26.4.9 10.8 6.1 20.8 14.5 27.7 10.5 8.8 18 10.5 24.2 11.9s17.1 9.7 24.6 9.7 11 5.3 19.8 4 5.3-8.4 5.3-11.4-12.8-12.3-13.2-15.4 1.8-9.7-.4-11.4-2.6-7.9-2.6-12.3-.4-11.9 1.3-15 10.1-9.7 11.9-13.2-2.6-15 1.3-18.9 15.8-7 18.9-9.2 4-7.9 6.6-11.9 6.6-2.6 10.1-6.2 8.4-8.8 8.4-8.8l21.6-.5s11-6.2 17.2-12.3 8.4-22.9 8.4-27.7 8.4-8.8 12.8-5.3 4 6.6 9.2 6.6 12.3-2.2 15.8-6.6 5.7-7.9 12.3-12.3 4.8-17.2 4.4-22c-.3-2.9 0-14.3.2-24.1Z" style="fill:url(#radial-gradient)"/><path d="M507.6 211c-.8-.4-1.3-.6-1.3-.6l-1.8-67.7s-11.4-.4-15-5.3-10.6-4.4-13.2-5.3-13.6-8.8-17.1-9.7-9.7 3.5-15.8 4.4c-5.4.8-10.8 1.2-16.3 1.4-2.6 0-6.6 3.5-11.4 4.4-3.8.5-7.6.7-11.4.4-3.4-4.3-13.1-5.1-15-2.9-6.9-4.6-13.3-.7-20.2-1.6-4-.5-9.2-4.7-11-5.1s-3.5 3.1-7.5 3.1-7.5-4.4-9.2-7-5.3-4-11.4-2.6-7.9 1.8-11.4.4-11-8.4-14.1-8.8-10.6-7.5-10.6-7.5l-5.3 4.4c-3-3-13.4-9.6-21.8-14v123.1c80.6-4.2 137 47.8 240.8-3.4Z" style="fill:url(#linear-gradient1)"/><path d="M516.4 221.3c-.3-5.1-6.2-8.9-8.8-10.3-103.8 51.2-160.1-.8-240.8 3.4v51h260.8c.1-6.4.3-12.1.3-14.6 0-6.1-2.6-8.8-5.7-13.6s-5.3-9.3-5.7-15.9Z" style="fill:#f4eace"/><path d="M177.3 231H131l29.5 21.3c14.1-9.2 29.1-17.1 44.6-23.6l-13.5-41.8z" style="fill:#f5eee4"/><path d="m168.5 258.1-14.4 44.1 37.4-27.3 37.4 27.3-14.4-44.1 37.5-27.2h-46.3l-.7-2.2c-15.6 6.5-30.5 14.4-44.6 23.6l8 5.8Z" style="fill:url(#radial-gradient1)"/></g><path id="bookback" d="m350.8 323.8 1.3-5.7 46.8-36.5 128-45 2.6-12.5-127.2-155c-.8 1.6-1.8 3.2-3 4.6-2.3 3.1-4.9 6-7.8 8.6q-4.5 4.05-9.6 7.2c-3.4 2.2-7 4-10.7 5.6-3.8 1.6-7.7 2.7-11.8 3.4-4 .7-8.1 1.2-12.1 1.4-4.1.3-8.2.5-12.3.9-3.9.4-7.9.9-11.8 1.7-3.8.8-7.6 1.8-11.3 3-3.8 1.3-7.5 2.7-11.1 4.4-3.6 1.6-7.1 3.5-10.5 5.5s-6.7 4.3-9.8 6.8-6 5.3-8.5 8.3c-2.5 2.9-4.5 6.2-6.1 9.6-.7 1.6-1.3 3.3-1.8 5-.4 1.5-.6 3.1-.6 4.7-1.3-1-2.7-1.7-4.2-2.3-1.6-.7-3.3-1.2-5.1-1.6-3.7-.8-7.5-1.2-11.3-1-4 .2-7.9.8-11.8 1.8s-7.7 2.2-11.3 3.7q-5.55 2.25-10.8 5.1c-3.5 1.9-6.9 3.9-10.2 6.2-3.2 2.2-6.3 4.6-9.2 7.2-3 2.6-5.8 5.4-8.5 8.4-2.8 3-5.4 6.2-8.1 9.2-2.6 3.1-5.5 6.1-8.4 8.8-3 2.8-6.3 5.2-9.9 7.3-3.5 2-5.5 7.5-9.3 8.9s-8.8 2.1-12.8 2.8-7.1 5.5-11 2.9c-1.5-1 1.8.3 0 0-1-4.7 1.8.3 40.3 187.8l9.8 9.7 92.8-66 86.2-25Z" style="fill:url(#linear-gradient2)"/><path id="book" d="M350.8 328.7s35.9-28.2 48.9-34.6c32.5-16.2 133.2-55.8 133.2-55.8l-1.3-18.9S400.2 67.6 400.1 67.6c-.8 1.6-1.8 3.2-2.9 4.6-2.3 3.1-4.9 6-7.8 8.6q-4.5 4.05-9.6 7.2c-3.4 2.2-7 4-10.7 5.6-3.8 1.6-7.7 2.7-11.8 3.4-4 .7-8.1 1.2-12.1 1.4-4.1.3-8.2.5-12.3.9-4 .4-7.9.9-11.8 1.7-3.8.8-7.6 1.8-11.3 3-3.8 1.3-7.5 2.7-11.1 4.4s-7.1 3.5-10.5 5.5-6.7 4.3-9.8 6.8-6 5.3-8.5 8.3c-2.5 2.9-4.5 6.2-6.1 9.6-.7 1.6-1.3 3.3-1.8 5-.4 1.5-.6 3.1-.7 4.7-1.3-.9-2.7-1.7-4.2-2.3-1.6-.7-3.3-1.2-5.1-1.6-3.7-.8-7.5-1.1-11.3-.9-4 .2-7.9.8-11.8 1.8s-7.6 2.2-11.3 3.7-7.3 3.2-10.7 5.1c-3.5 1.9-6.9 3.9-10.2 6.2-3.2 2.2-6.3 4.6-9.2 7.2-3 2.6-5.8 5.4-8.5 8.4-2.8 3-5.4 6.2-8.1 9.2-2.6 3.1-5.5 6.1-8.4 8.8-3 2.8-6.3 5.2-9.9 7.3-3.5 2-7.1 3.7-10.9 5.1s-7.6 2.5-11.6 3.3c-3.8.7-7.7 1.1-11.6 1.1-1.8 0-3.7-.1-5.5-.4l41.6 196.5 14.2 12.4s84.2-56.6 114-71.4c15.7-7.8 68-19 68-19Zm-84-174.3 4.2-6.2c0-.8.2-1.5.4-2.2.3-1.2.7-2.3 1.2-3.4 1.2-2.7 2.8-5.1 4.7-7.4 2.2-2.6 4.6-4.9 7.2-7 2.7-2.2 5.6-4.2 8.6-6q3.15-1.8 6.6-3.6c1-.5 2-1 3-1.4 3.3-1.5 6.6-2.9 10.1-4 3.3-1.1 6.7-2 10.1-2.7 3.6-.7 7.2-1.1 10.8-1.4 2.5-.2 5.2-.4 7.9-.6h.2c1.3 0 2.6-.2 4-.3 4.4-.3 8.9-.8 13.2-1.5 4.7-.8 9.3-2.2 13.8-4 1.5-.6 3-1.3 4.6-2.1 2.5-1.2 5.1-2.7 7.6-4.3 3.9-2.5 7.5-5.3 10.9-8.4q2.55-2.25 4.8-4.8l117.9 136.1c-1 1-2 1.9-3.1 2.9-3.4 3-7 5.8-10.7 8.4-5 3.4-10.2 6.5-15.7 9.2-6.3 3.1-12.9 5.6-19.8 7.2-5.3 1.3-10.7 2.1-16.4 3.1l-3.9.6c-8.5 1.3-17 3.2-25.3 5.5-11.2 3.3-22 7.6-32.4 12.8-9.8 4.8-19.1 10.5-27.8 17-6 4.5-11.4 9.7-16.1 15.4-.3.4-3.4 7.6-3.8 8.1l-76.9-155.1Zm-141.7 65.7c2.2-.2 4.4-.5 6.7-1 4.5-.9 8.9-2.1 13.2-3.7 2.8-1.1 5.5-2.2 8-3.5 1.5-.8 3-1.6 4.4-2.4 4.1-2.4 8-5.3 11.5-8.5 3.3-3 6.3-6.3 9.2-9.6l2.6-3v-.2c1.8-2 3.6-4 5.3-5.9 2.4-2.7 5-5.2 7.7-7.6 2.6-2.3 5.4-4.5 8.3-6.5 3-2 6.1-3.9 9.2-5.6 1-.5 2-1.1 3-1.5 2.3-1.1 4.6-2.2 6.8-3.1 3.3-1.3 6.6-2.4 10-3.3q4.8-1.2 9.9-1.5c2.9-.1 5.9 0 8.7.7 1.2.3 2.3.6 3.4 1.1.7.3 1.4.6 2 1l9.4 1.6 74.8 153.2c-.5 0-7.7-1.4-8.2-1.4-7.4.3-14.8 1.5-22 3.5-10.5 3-20.6 6.9-30.3 11.9-10.4 5.1-20.4 11.2-29.8 18.1-6.9 5.2-13.5 10.8-19.6 16.8l-2.9 2.7c-4.2 4-8.1 7.8-12.4 11.2-5.4 4.5-11.4 8.4-17.7 11.5-5.4 2.7-11 5.1-16.8 7-4.3 1.4-8.7 2.6-13.2 3.5-1.4.3-2.8.5-4.1.7l-37.3-176.2Z" style="fill:#231f20;stroke:#fff;stroke-miterlimit:10;stroke-width:2px"/><g id="text"><path d="M297.9 154.7c0 .1 0 .3-.2.4-.2 0-.4 0-.5-.2-2.6-3.5-8-9-10.7-8.3-1.5.4-1.1 1.5-.6 2.8 1 2.4 2.8 4.8 10.3 11.1 7.1 5.9 8.2 7.2 9.9 11 2.2 5.1-.4 7.9-2.5 8.7q-1.8.6-3.6.3c-.4-.1-.9-.1-1.4 0-.2 0-.5.6-1.4 1.7-.2.2-.3.5-.5.6s-.3 0-.4-.1c-2.1-5-3.1-7.5-5.2-12.5 0-.1 0-.4.1-.4s.4.1.5.2c2.7 3.4 7.1 9.4 10.5 8.1 1.1-.4 1.2-1.6.6-3.1-1.4-3.2-4.6-6.1-10.4-11.1-5.5-4.7-8.2-8.3-9.7-12-2-4.8-.2-6.8 2.7-7.6 1.2-.2 2.5-.2 3.7.2h1c.4-.3.8-.7 1-1.2.3-.6.6-.9 1-1s.5.1.6.4l5.1 12.3ZM318.9 157c5 11.6 3 15.4-.8 17.1s-7.9.5-13-11.4c-4-9.5-2.1-13.5 1.6-15s8.1 0 12.1 9.3Zm-4.6 2c-3.5-8.2-5.1-9.8-6.7-9.1s-1.6 2.8 2 11.1c4.6 10.8 6.1 11.9 7.6 11.2s1.7-2.6-2.9-13.2M340.9 160.2c0 .1.1.3.2.4l2.5.6c.2 0 .4 0 .4.2s0 .3-.3.4l-5.4 2.7c-.2.1-.5.1-.5 0l-.7-1.5h-.1c-.5 1.6-1.7 2.9-3.1 3.6-3.4 1.7-5.6.9-7-2.2-3.3-7.3-4.9-11.1-8.3-18.8 0-.2-.2-.3-.3-.3l-2.3-.6c-.2 0-.4-.2-.4-.3s0-.3.3-.3c2.2-.9 3.4-1.4 5.6-2.4.1 0 .3 0 .4.1 3.7 8.5 5.5 12.7 9.1 20.7.8 1.7 1.9 2.2 3.4 1.5s2-2.6 1-4.8c-3.1-6.8-4.7-10.4-7.8-17.6 0-.2-.2-.3-.3-.3l-2.3-.6c-.2 0-.3-.1-.5-.2 0-.1.1-.3.3-.3l5.6-2.5c.2-.1.3 0 .4.1 4 9.3 6 13.8 10 22.3ZM353.5 155.7c.2.4 0 .8-.3 1.1l-1.6.9c-.3.2-.8.1-1-.2-5.6-7.1-8.4-11.3-14-19.5-.2-.3-.5-.5-.8-.6l-1.7-.6c-.2 0-.4-.2-.4-.3s0-.2.3-.3l6.8-3c.2 0 .4-.1.4 0v.5c-.4.8-.5 1.2-.9 2-.1.3 0 .6 0 .8 3.2 4.6 4.8 6.9 8 11.3h.1c-1.4-5.3-2.1-8-3.5-13.4 0-.3-.3-.6-.6-.6l-2.1-.6c-.2 0-.3-.1-.4-.3s.1-.2.3-.3l6.1-2.7c.2 0 .4-.1.4 0 0 .2 0 .4-.1.5l-.9 1.7c-.2.3-.2.7-.1 1 2.4 9.4 3.6 13.9 6.1 22.6ZM360.2 141.8c2.5 5.2 4.5 6.5 7.2 5.1 1.6-.8 2.8-2.2 3.2-4 0-.2.2-.3.3-.4.2 0 .3 0 .3.1.2 2.7-1.2 5.2-3.7 6.3-5.4 2.8-9.4.6-13.8-8.9-3-6.5-2.3-11.8 1.9-13.8 3.4-1.6 7.2-1.1 10.1 5l1.2 2.6c.1.3.1.5-.3.7-3.2 1.6-4.8 2.3-8 4 .6 1.3 1 1.9 1.6 3.2Zm2.1-7-2-4.2c-1.1-2.2-2.5-3.1-3.9-2.4s-1.6 2.2-.5 4.5c.8 1.7 1.2 2.6 2 4.2l4.4-2.2ZM370.9 121.3h.1c.7-1.5 1.9-2.6 3.4-3.1 3-1.2 5.6-.5 7 2.2 3.2 6.4 4.7 9.4 7.9 15.3 0 .1.1.3.3.3l2.5.5c.1 0 .3 0 .4.1q0 .15-.3.3c-3.1 1.4-4.7 2.1-7.8 3.6-.2.1-.4.1-.4 0s0-.2.1-.4c.5-.9.7-1.3 1.1-2.2v-.4c-3.1-6-4.7-9.1-7.9-15.6-.8-1.5-1.8-2.1-3.2-1.5s-2.3 2.6-1.2 4.8c3 6.1 4.4 9 7.3 14.7 0 .1.1.3.2.3l2.5.4c.2 0 .4 0 .4.1s-.1.2-.3.3c-3.1 1.5-4.7 2.3-7.8 3.9-.2.1-.4.1-.4 0s0-.3.1-.4l1.1-2.3v-.4c-3.6-7-5.4-10.6-9-18.3 0-.1-.2-.2-.3-.3l-2.3-.4c-.2 0-.4-.2-.4-.2s.1-.2.3-.3c2.3-1 3.4-1.5 5.7-2.5.2 0 .3 0 .4.1.2.5.3.7.6 1.2ZM385.8 107.2c.5 1 .2 2.2-.8 2.7 0 0-.2 0-.3.1-1.3.3-2.6-.3-3.3-1.4-.5-1-.2-2.2.7-2.7.1 0 .3-.1.4-.2 1.3-.3 2.6.3 3.2 1.5Zm-.5 9c0-.1-.2-.2-.3-.2l-2.4-.5c-.2 0-.4-.2-.4-.2s.1-.2.3-.3c2.3-.8 3.4-1.2 5.7-2 .1 0 .3 0 .4.1 3.9 7.8 5.9 11.5 9.7 18.6q0 .15.3.3l2.5.5c.1 0 .3 0 .4.1 0 .1 0 .2-.3.3-3.1 1.3-4.7 1.9-7.8 3.3-.2 0-.4.1-.4 0s0-.2.1-.4c.5-.8.7-1.2 1.2-2.1v-.4c-3.6-6.6-5.3-10-8.9-17.2ZM407.5 128.2c0 .1.1.2.2.3l2.7.5c.1 0 .3 0 .4.1 0 .1 0 .2-.3.3-3.2 1.1-4.8 1.8-8 3-.2 0-.4.1-.4 0s0-.2.1-.3l1.2-2v-.4c-3.5-6.4-5.3-9.7-8.9-16.6 0-.2-.2-.2-.4-.2l-2.3-.5c-.2 0-.3-.1-.4-.2 0-.1 0-.2.3-.3 2.3-.7 3.5-1.1 5.8-1.8.2 0 .3 0 .4.1l.7 1.3h.1c.5-1.2 1.4-2.1 2.6-2.4 2-.5 4.3 1.1 4.9 2.3 0 .2.1.3-.1.4-.2 0-.5 0-.6-.2-1.1-.7-2.6-.9-3.9-.5-1.7.5-2 2.4-1 4.2 2.8 5.4 4.3 8 7 13ZM308.2 206.1c-.2-.5-.6-.9-1.1-1l-2.3-.6c-.2 0-.5-.1-.6-.2s0-.3.2-.4c3.5-1.3 5.2-2 8.6-3.4 4.5-1.9 8.4-1.6 11.5 4.5 2.6 5.1 1.7 9.3-3.4 11.8l-1.9.9c2.2 4.4 3.3 6.5 5.5 10.7.2.4.5.8 1.1.8h2.7c.2 0 .5 0 .6.1s0 .3-.2.4c-3.7 1.9-5.6 2.9-9.3 4.8-.2.1-.4 0-.5 0s.2-.3.2-.5l1.1-2c.2-.4.2-.9 0-1.3-4.8-9.3-7.3-14.1-12.2-24.4Zm10 9.5 1.7-.8c2.4-1.1 2.2-3.3 0-7.7s-3.6-5.5-6-4.5l-1.7.7c2.4 5 3.6 7.5 6 12.3M342.3 219.9c0 .1.1.3.2.3l2.6.2c.1 0 .3 0 .4.1 0 .1 0 .2-.3.3-3.1 1.7-4.6 2.6-7.6 4.2-.2.1-.4.1-.4 0v-.4l1.1-2.2v-.4c-3.6-6.7-5.4-10.1-9-17.1 0-.1-.2-.2-.4-.2l-2.2-.3c-.2 0-.3 0-.4-.2 0-.1 0-.2.3-.3 2.2-1.1 3.3-1.6 5.5-2.8h.4l.7 1.3h.1c.4-1.4 1.3-2.5 2.4-3.3 1.9-1 4.2.4 4.8 1.6.1.2.1.4-.1.5s-.5 0-.6 0c-1.2-.6-2.6-.5-3.8.2-1.7.9-1.9 3-.9 5 2.9 5.5 4.3 8.2 7.2 13.5M358.5 198.5c4.8 8.9 2.8 12.6-1 15s-7.8 2.4-12.7-6.8c-3.9-7.3-1.9-11.3 1.8-13.4s8.1-1.9 11.9 5.2m-4.5 2.8c-3.4-6.3-5-7.3-6.5-6.4s-1.6 2.8 1.9 9.2c4.4 8.4 5.9 8.8 7.4 7.9s1.7-2.6-2.7-10.7ZM378.3 194.7c4.1 7.2 2.1 10.2-1.9 12.8-4.3 2.8-7.4 1.5-7.8.9v-.4c.2 0 .5-.1.7 0 1.9.2 3.8-.3 5.4-1.4 2.1-1.4 2.8-3.1.9-6.5h-.1c-.6 1.7-1.7 3-3.1 3.9-2.5 1.6-5.7 2.7-11.2-7.4-4.4-8-2.1-10.8.6-12.4 1.4-.9 3.1-1.3 4.8-1.1h.1l2.1-3c.1-.2.3-.4.5-.5s.3-.1.4 0c3.4 6.3 5.1 9.3 8.4 15.3Zm-9.9-8c-1.2-2.3-3.3-2.5-4.6-1.7s-1.5 2.2 2.1 8.6c4.7 8.5 5.7 8.8 7.2 7.9s2-2.9 1.1-4.4c-2.3-4.1-3.4-6.1-5.7-10.4ZM388.4 191.1c0 .1.1.2.2.3h3c.1 0 0 .2-.3.4-3.1 2-4.7 3-7.8 4.9-.2.1-.4.2-.4 0s0-.2.1-.4c.5-.9.7-1.4 1.1-2.3v-.4c-3.5-6.1-5.2-9.2-8.8-15.7 0-.1-.2-.2-.4-.1h-2.2c-.2 0-.4 0-.4-.1s0-.2.3-.4c2.2-1.4 3.4-2 5.6-3.4.2-.1.3-.1.4 0l.7 1.2h.1c.4-1.4 1.3-2.6 2.5-3.4 1.7-.9 3.7-.4 4.8 1.1.1.1 0 .3 0 .4q-.3.15-.6 0c-1.3-.5-2.7-.3-3.8.5-1.7 1-2 3.1-1 4.9 2.9 5.1 4.2 7.6 7 12.5ZM408.7 178.4c.2.4.7.6 1.2.4.6-.4 1.1-.9 1.4-1.5 0-.1.1-.2.2-.3h.2c.4.9-.5 2.8-1.9 3.6-1.8 1-3.8.5-4.2.7s-1.7 2.7-3.3 3.6c-2.3 1.4-5.5 2.3-8.2-2.4-2.1-3.8-1.7-5.5 3-12.1.9-1.2.7-1.5 0-2.9s-1.6-1.6-3.5-.5c-1.8 1.1-3.3 2.6-4.4 4.4-.1.2-.2.3-.4.4h-.3c-.2-.4 1.8-4.8 5-6.6 2.1-1.2 6.2-2.4 8.2 1 2.8 4.9 4.2 7.3 7 12.1Zm-9.8-7.6h-.1c-2.3 3.5-2.6 5.2-.6 8.6 2.2 3.8 3.3 4.2 4.5 3.4 1.2-.6 1.7-2.1 1.2-3.3-2-3.5-3-5.2-5-8.7M405.7 160.8c0-.1-.2-.2-.3-.2h-2.3c-.2 0-.4 0-.4-.1s.1-.2.3-.3c2.3-1.2 3.4-1.8 5.6-2.9.2-.1.3 0 .4 0l.6 1h.1c.7-1.5 2-2.6 3.4-3.2 1.8-.9 4-.4 4.5-.6s1.8-2.2 3.8-3c2.7-1 5.4-.6 6.6 1.6l7.5 13c0 .1.1.2.3.2l2.5.4c.1 0 .3 0 .4.1 0 .1 0 .2-.3.3-3.1 1.1-4.7 1.8-7.8 3.1-.2 0-.4.1-.4 0s0-.2.2-.4c.4-.8.7-1.1 1.1-1.9v-.3c-3-5.2-4.5-7.8-7.5-13.1-.7-1.3-1.6-1.8-2.8-1.3-1.4.6-2 2.3-1.3 3.6 0 .1.1.2.2.4 2.8 5 4.2 7.4 7 12.2 0 .1.1.2.3.2l2.1.5c.1 0 .2 0 .3.1 0 .1 0 .2-.3.3-2.7 1.2-4.1 1.8-6.8 3.1-.2 0-.4.1-.4 0s0-.2.1-.3c.3-.7.4-1.1.7-1.8v-.4c-3-5.2-4.5-8-7.6-13.2-.7-1.2-1.6-1.7-2.8-1.1-1.5.8-2 2.6-1.2 4.1 0 0 0 .1.1.2 2.8 4.9 4.2 7.3 7 12.2 0 .1.1.2.3.2l2.5.3c.2 0 .3 0 .4.1s0 .2-.3.3c-3.1 1.5-4.6 2.3-7.7 4-.2.1-.4.2-.4 0 0-.1 0-.3.1-.4l1.1-2.1v-.4c-3.5-5.9-5.2-8.8-8.6-14.9ZM347.6 252c0 .2 0 .4-.1.5-.2.1-.5 0-.7-.1-2.3-2.4-6.3-5.6-9.1-4-2.5 1.4-1.1 5 3 12.1 5.8 10 7.9 10.5 10.4 9 3.1-1.8.7-8.4.6-8.7s0-.4.3-.5.5-.1.6 0c2.9 4.7 3.4 8.5-1.5 11.4-6.5 3.8-11.7-3-14.9-8.6-2.4-4.1-6.7-12.4.4-16.3 1-.5 2-.8 3.1-.8.4 0 .7-.1 1.1-.3s.7-.6.9-1 .4-.8.8-1.1c.3-.2.5 0 .7.4 1.9 3.3 2.9 4.9 4.7 8.1ZM366.8 248.7c4.7 8.1 2.7 11.8-1 14s-7.7 2.4-12.4-5.6c-3.8-6.4-1.9-10.1 1.8-12.4s7.9-2.4 11.6 4.1Zm-4.4 2.8c-3.3-5.7-4.9-6.4-6.4-5.4s-1.5 2.7 1.8 8.3c4.3 7.3 5.8 7.9 7.2 7s1.7-2.5-2.6-9.9M366.8 239.5c0-.1-.2-.2-.3-.2l-2.2.2c-.2 0-.3 0-.4-.1s0-.2.3-.4l5.5-3.5c.2-.1.3-.1.4 0l.6 1h.1c.7-1.6 1.8-2.9 3.3-3.8 1.8-1.2 3.9-1 4.3-1.2.5-.3 1.7-2.7 3.7-4 2.6-1.7 5.2-1.8 6.5.4 3 5.3 4.5 8 7.5 13.4 0 .1.1.2.3.2h2.8c.1 0 0 .2-.3.4-3 2-4.5 2.9-7.5 4.9-.2.1-.4.2-.4 0s0-.2.1-.4l1-2.3v-.4c-3-5.4-4.5-8.1-7.5-13.4q-1.05-1.95-2.7-.9c-1.5 1.1-1.9 3.1-1 4.7 2.8 4.9 4.2 7.4 7 12.4 0 .1.1.2.3.2l2 .3c.1 0 .2 0 .3.1 0 .1 0 .2-.3.4-2.6 1.7-4 2.5-6.6 4.2-.2.1-.4.2-.4 0 0-.1 0-.3.1-.4l.6-2v-.4c-3-5.4-4.5-8-7.6-13.3q-1.05-1.95-2.7-.9c-1.5 1-1.9 3.1-1 4.6 2.8 4.9 4.2 7.3 7 12.3 0 .1.1.2.3.2h2.8c.1 0 0 .2-.3.4-3 1.9-4.5 2.9-7.5 4.7-.2.1-.4.2-.4 0v-.4c.4-.9.6-1.4 1.1-2.3v-.4c-3.4-5.9-5.1-8.9-8.6-14.9ZM392.1 222.9c0-.1-.2-.2-.3-.1l-2.2.2c-.2 0-.4 0-.4-.1s0-.2.3-.4l5.5-3.6c.2-.1.3-.1.4 0l.5 1h.1c.7-1.6 1.9-2.9 3.3-3.8 1.8-1.2 4-1 4.4-1.2.5-.3 1.8-2.7 3.7-4 2.6-1.6 5.2-1.7 6.5.6 3 5.4 4.5 8.2 7.4 13.8 0 .1.1.2.3.2l2.4.2c.2 0 .3 0 .4.1s0 .2-.3.3c-3 1.7-4.6 2.6-7.6 4.4-.2.1-.4.2-.4 0s0-.3.2-.4l1.1-2.2v-.4c-3-5.6-4.4-8.2-7.4-13.6-.7-1.3-1.5-1.6-2.7-.9-1.5 1-2 3-1.1 4.6 2.8 5 4.2 7.5 6.9 12.6 0 .1.1.2.3.2l2 .3c.1 0 .2 0 .3.1 0 .1 0 .2-.3.4-2.7 1.7-4 2.6-6.6 4.3-.2.1-.4.2-.4 0s0-.2.1-.4c.3-.8.4-1.2.7-2v-.4c-3-5.5-4.5-8.2-7.5-13.5-.7-1.3-1.5-1.6-2.7-.9-1.5 1.1-2 3.1-1.1 4.7 2.8 5 4.2 7.5 6.9 12.5 0 .1.1.2.3.2h2.8c.1 0 0 .2-.3.4l-7.5 4.9c-.2.1-.4.2-.4 0 0-.1 0-.3.1-.4l1.1-2.3v-.4c-3.4-6.1-5.1-9.2-8.5-15.2ZM418.3 197.9c.4 1.3-.3 2.7-1.6 3.2-1 .3-2 0-2.7-.7-.4-1.1 0-2.4 1.2-3 1-.7 2.4-.4 3.1.6Zm-.5 8.8c0-.1-.2-.2-.3-.2h-2.3c-.2 0-.3 0-.4-.1s.1-.2.3-.4c2.2-1.4 3.3-1.9 5.6-3.2h.4c3.7 6.8 5.5 10.3 9.1 17.2 0 .1.1.2.3.2l2.4.3c.1 0 .3 0 .4.1s0 .2-.3.3c-3 1.6-4.6 2.5-7.6 4.2-.2 0-.4.2-.4 0 0-.1 0-.3.1-.4l1.1-2.2v-.4c-3.3-6.3-5-9.5-8.4-15.7ZM438.7 214.7c.4.7 1.3 1 2 .6.6-.4 1.1-1 1.4-1.6 0-.1.2-.2.3-.3.1 0 .3 0 .3.1 0 1.1-.4 2.9-2.9 4.2s-4.1 1.3-5.6-1.6c-3-5.7-4.5-8.5-7.5-14.1 0-.1-.2-.4-.4-.4h-2.6s.1-.3.7-.7c2.4-1.6 1.3-4.4.5-5.8 0-.2 0-.4.3-.6l1.8-.9c.2-.1.4-.1.5 0l2.1 4c.1.2.2.3.6 0l1.3-.7c.3-.1.5 0 .2.4-.4.6-.5.9-.9 1.6 0 .3-.3.6-.1.9 3.1 5.8 4.7 8.8 7.8 14.9ZM448.9 209.8c.4.7 1.3 1 2 .6.6-.3 1.1-.9 1.4-1.5 0-.1.2-.2.3-.3h.3c0 1.1-.5 2.8-2.9 3.9s-4.1 1.1-5.6-1.8c-3-5.7-4.4-8.6-7.4-14.2 0-.1-.2-.4-.4-.4h-2.2c-.1-.1-.4-.1-.4-.2s.1-.3.7-.6c2.4-1.4 1.3-4.3.6-5.7-.1-.2 0-.4.3-.5l1.8-.8c.2-.1.4 0 .5 0 .9 1.6 1.3 2.4 2.1 4 0 .2.2.3.6.1l1.3-.6c.3-.1.5 0 .2.4l-.9 1.5c0 .2-.3.6-.1.8 3.2 6 4.7 9 7.8 15.1ZM456.2 200.8c2.3 4.5 4.1 5.8 6.8 4.8 1.5-.4 2.7-1.5 3.2-3 0-.1.2-.3.3-.3.2 0 .3 0 .3.2.2 1.9-.9 3.9-3.8 4.9-5.3 1.9-9.1-.3-13.2-8.2-2.8-5.4-1.9-9.7 2.3-11.2 3.4-1.3 7.1-.7 9.8 4.5.4.9.7 1.3 1.1 2.2.1.2.1.5-.3.6-3.2 1-4.8 1.6-7.9 2.8zm2.2-5.6-1.8-3.6c-1-1.9-2.3-2.6-3.7-2.1s-1.6 1.8-.6 3.7l1.8 3.6c1.7-.7 2.6-1 4.3-1.6M472.2 195.8c2.3 4.5 4.1 5.9 6.8 5.4 1.4-.1 2.7-1 3.3-2.3 0-.1.2-.2.3-.2.2 0 .3 0 .3.2.1 1.8-1 3.5-3.8 4-5.3 1-9.1-1.3-13.2-9.4-2.7-5.5-1.8-9.5 2.3-10.5 3.4-.8 7.1.4 9.8 5.7l1.1 2.3c.1.3.1.4-.3.5-2.7.4-5.3.9-7.9 1.5l1.4 2.8Zm2.3-5-1.8-3.6c-1-1.9-2.3-2.8-3.7-2.5s-1.6 1.5-.7 3.4l1.8 3.6c1.8-.5 2.6-.7 4.4-1Z" class="st2"/></g><g id="logo"><path d="M257.3 285.6c-2.5-18.3-7.3-28.7-18-42.7-3.4 2-6.8 4.3-10.4 6 4.5 3.3 6 8.4 7.1 12.7l-8.1 3.4-8 3.4c-3.2-4.9-5-8.8-4.5-14-4 1.4-8 2.5-12.1 3.6 2.6 17.5 9 29.4 18.3 42.6.1.1.4.2.2.3 2-.9 4.9-1 5.6-2.2 1.6-2.6 3.1-4.5 4.5-5h-.1c-3.7-4.2-7.7-9.8-7.7-14.5l15.8-6.7c3.4 3.3 4.6 10 5.1 15.5 0 .1.1.3 0 .3 1.4-.6 3.7-.5 6.7.2 1.3.3 3.4-1.7 5.4-2.6.3 0 0-.2 0-.4Z" style="fill:#ee7623"/><path d="M280.5 304.9c-1.3-.7-2.8-.5-4 .4q-1.8 1.2-3.3 2.7c-.3.3-.6.6-1 .9q-.3.45-.9.6c-.3 0-.7.1-1 .1h-1.9c-1 0-1.9-.5-2.7-1.1-2.1-1.8-2.2-5.5-2.3-9.1 0-2.3-.2-4.6-.9-6.8v-1.5c.1-1.4 0-2.7-.3-4.1-.4-1-1.3-2.2-3.5-1.9-1.4.3-2.7.9-3.8 1.7-.6.4-1.2.7-1.8 1-.3.1-.5.2-.8.2-1.5-.4-3.1-.6-4.6-.6-1 0-1.9.1-2.8.5-.7.4-1.4 1.1-1.2 1.9l.2.8.3 1.1c.8 3 1.3 6.1 1.8 9.2 1.1 6.7 2.3 13.8 6.3 19.5.6.9 1.2 1.8 1.9 2.6.4.4.8.7 1.3 1 .5.2 1.1.3 1.7 0 1.2-.1 2.4-.5 3.5-1 .6-.4 1.1-1 1.5-1.6.1-.2.4-.6.4-.6 1.5-.6 3.1-.9 4.7-1.1 1.9-.2 3.7-.7 5.5-1.4q2.25-1.05 3.9-2.7c.6-.6 1.1-1.1 1.6-1.8.2-.3.5-.6.7-.9l1.2-1.5c.6-.8 1.3-1.6 1.8-2.5.5-.6.8-1.3 1.1-2 .2-.8-1.1-1.5-1.6-1.7l-.8-.4ZM220 330.7c.4-1.4 1.6-2.4 3-2.7s2.9-.5 4.3-.5h1.3c.3 0 .7-.1 1-.3s.5-.4.7-.6c.5-.4.9-.9 1.3-1.4.6-.8 1-1.7 1.1-2.7.2-2.8-2.4-5.4-4.9-8-1.7-1.5-3.2-3.3-4.3-5.4-.3-.4-.7-.7-1.1-1-1.1-.8-2-1.9-2.7-3-.5-1-.7-2.5 1.1-3.9 1.2-.7 2.5-1.3 3.9-1.5.7-.2 1.3-.3 2-.6.3 0 .5-.3.7-.5.8-1.3 1.7-2.6 2.8-3.8.6-.7 1.4-1.3 2.3-1.6.8-.4 1.7-.2 2.2.4l.4.7.6 1c1.6 2.6 3.5 5.2 5.4 7.7 4.1 5.5 8.4 11.2 9.7 18 .3 1 .4 2.1.5 3.2 0 .5 0 1.1-.2 1.6-.2.7-.6.9-1.1 1.3-1 .8-2 1.4-3.2 1.8-.7.2-1.5.1-2.2 0-.2 0-.5-.1-.7-.1-1.5.7-2.8 1.6-4.1 2.6q-2.25 1.8-4.8 3c-1.5.6-3.1.9-4.7.9h-2.4c-.4 0-.8 0-1.1-.1-.6 0-1.3-.1-1.9-.2-1 0-2-.2-3-.4-.7 0-1.5-.3-2.2-.6-.7-.4-.3-1.8 0-2.4.2-.3.3-.6.4-1Z" class="st2"/><path d="M268.7 299.4c.6-.3 1.3-.4 1.9-.3.7 0 1.3.3 1.8.7 1.1.8 1.7 2.1 1.5 3.5 0 .7-.3 1.3-.7 1.8-.8 1.1-2.1 1.6-3.5 1.5-.7 0-1.3-.3-1.8-.7q-.75-.6-1.2-1.5c-.3-.6-.4-1.3-.3-2 0-.7.3-1.3.8-1.8.4-.5.9-.9 1.5-1.1Zm.3.6c-.5.2-.9.5-1.2 1q-.45.6-.6 1.5c-.1 1.1.3 2.2 1.2 2.8q.6.45 1.5.6c.5 0 1.1 0 1.5-.2.5-.2.9-.6 1.2-1q.45-.6.6-1.5c.1-1.1-.3-2.2-1.2-2.8q-.6-.45-1.5-.6c-.5 0-1.1 0-1.5.3Zm.4 5.4-1.6-3.7.8-.3 1.2-.5c.2 0 .4-.1.6-.1s.4 0 .5.2c.2.1.3.3.4.5.1.3.1.5 0 .8s-.3.5-.6.7h.3c.1 0 .3.1.4.2l.5.3.8.6-.9.4-.6-.5c-.3-.2-.5-.4-.9-.5h-.8l.6 1.6zm-.2-2.4h.3c.3-.2.5-.4.8-.5 0 0 .1-.2.2-.3v-.3s-.1-.2-.2-.2h-.3c-.3 0-.6.2-.8.3h-.3c0 .1.4 1.1.4 1.1ZM272.7 206.2c-.4-.5-1.1-.5-1.6.1-9.7 11.4-21.2 21.1-34 28.8l-4-8.4c-2.5-5.1-6.5-8.7-10.3-12.3-1.3-1.2-2.5-2.4-3.8-3.6-2.4-2.3-4.4-5-6.1-7.9-.2-.4-.4-.8-.5-1.2-.3-.9-.5-1.8-.6-2.6 0-.2-.1-.5-.2-.8-.2-1.1-.6-2.2-1.1-3.1-.3-.6-.7-1.1-1.2-1.6s-1.2-.8-1.9-.9c-.7 0-1.3.1-1.9.5-1.2.8-2.1 1.9-2.6 3.3-.3.6-.5 1.3-.6 1.9-.1.7-.4 1.5-.7 2.1s-1.1.8-1.7.5c-.6-.2-1.1-.5-1.6-.9q-.9-.6-1.8-.9c-1.3-.6-2.8-.7-4.2-.4-.6.1-1.2.5-1.6 1-.4.6-.6 1.3-.6 2s0 1.4.3 2q.6 1.65 1.5 3c.1.2.3.4.4.7.5.8 1 1.6 1.4 2.4.2.4.4.8.5 1.2.9 3.2 1.4 6.5 1.4 9.9v5.2c0 5.2-.2 10.6 1.7 16l3.3 8.6c-14.4 3.9-29.4 5.4-44.3 4.6-.8 0-1.3.4-1.2 1.1.4 2 .9 3.9 1.3 5.9.3.7 1 1.2 1.8 1.2 44.8 2.5 88.2-16 117.4-50 .5-.6.7-1.4.4-2.1-1.2-1.8-2.2-3.5-3.4-5.2Z" class="st2"/><path d="M272.1 316.9c-1.7.6-3.4 1-5.1 1.3-1.7.2-3.4.6-5 1.2h-.2c0 .1-.2.3-.2.3-.3.3-.5.6-.7 1s-.5.8-.9 1.1c-.1 0-.3.1-.4.2-.9.3-1.8.5-2.7.7h-.6c-.4-.2-.7-.4-1-.7-.5-.6-1-1.2-1.5-1.9l-.3-.5c-3.8-5.5-4.9-12.3-6-18.9-.5-3.1-1-6.3-1.9-9.4l-.4-1.8c.1-.1.3-.2.4-.3h.2c.6-.3 1.2-.4 1.9-.4 1.4 0 2.9.2 4.3.6.6 0 1.2 0 1.8-.3.7-.3 1.4-.7 2-1.1.7-.5 1.4-.9 2.2-1.2.3-.1.7-.3 1-.3 1.4-.2 1.7.4 1.9.9.3 1.1.3 2.3.2 3.5v2.1c.7 2 1 4.2.9 6.3.1 4 .2 8 2.9 10.2 1 .8 2.2 1.3 3.5 1.4.7 0 1.4.1 2.2 0 .4 0 .9 0 1.3-.2h.4c.5-.3.9-.6 1.2-1l.5-.5.4-.4c.9-1 1.9-1.8 3-2.5.2-.1.4-.2.7-.3s.6-.2.9-.2c.4 0 .8.2 1.1.3l.9.4c.2 0 .4.2.5.3-.1.2-.2.4-.4.6l-.4.5c-.4.7-.9 1.3-1.4 1.9l-.6.8c-.3.4-.5.7-.8 1-.1.2-.3.3-.4.5l-.3.4c-.5.6-1 1.2-1.5 1.6-1 1-2.1 1.9-3.4 2.5ZM233.6 231.3l-1.8-3.9c-2.4-4.8-6.2-8.4-10-11.9-1.2-1.2-2.6-2.4-3.8-3.6-2.5-2.4-4.6-5.2-6.4-8.2-.2-.5-.5-1-.6-1.5-.3-.9-.6-1.9-.8-2.8l-.2-.8c-.2-1-.5-1.9-1-2.8q-.3-.6-.9-1.2c-.3-.3-.7-.5-1.1-.6-.2 0-.4 0-.5.1l-.3.2c-.9.6-1.6 1.5-2 2.6-.2.5-.4 1.1-.5 1.6-.2.9-.4 1.8-.9 2.6-.3.5-.7.9-1.3 1.2q-1.2.45-2.4 0c-.7-.3-1.3-.6-1.9-1-.5-.3-1-.6-1.6-.8-1-.4-2.1-.6-3.2-.4-.1 0-.2 0-.3.1-.2 0-.3.2-.4.3-.2.3-.4.7-.3 1.1 0 .5 0 1 .2 1.5.3.9.8 1.8 1.3 2.6l.4.7c.5.8 1 1.6 1.5 2.5l.6 1.5c1 3.3 1.5 6.8 1.5 10.3v5.3c0 5.1-.2 10.3 1.6 15.4l1.5 4c11.7-3.3 22.9-8.1 33.4-14.2Z" class="st8"/><path d="m273.2 209.5-1.2-1.8c-7.4 8.6-15.9 16.3-25.1 22.9q-5.4 3.9-11.1 7.2c-4.9 2.9-10 5.4-15.3 7.7l-.4.2h-.3c-5.2 2.3-10.6 4.2-16.1 5.8-4.2 1.2-8.6 2.2-12.9 3-11.2 2.1-22.5 2.9-33.9 2.3.2.7.3 1.4.5 2.1.2.9.4 1.8.6 2.8h.3c21.8 1.2 43.5-2.6 63.6-11.2h.2l.4-.3c20.1-8.5 37.9-21.5 52.1-38.1 0 0 .1-.2.2-.3-.5-.8-1.1-1.6-1.6-2.4ZM234.4 333c-1.3.5-2.7.8-4.1.8h-2.7l-.7-.1c-.4 0-.9 0-1.3-.1h-1c-.8-.2-1.6-.3-2.4-.4h-.6c-.2-.1-.5-.2-.7-.2 0-.2 0-.4.2-.6l.4-.9c.1-.4.3-.7.6-1 .2-.2.5-.4.8-.5.2 0 .5-.2.7-.2 1.3-.3 2.6-.5 3.9-.5h1.3c.5 0 1 0 1.5-.3l.4-.2c.3-.2.6-.4.9-.7.6-.5 1.1-1.1 1.5-1.7.8-1 1.3-2.2 1.4-3.5.2-3.5-2.6-6.4-5.4-9.2-1.6-1.4-2.9-3.1-4-4.9v-.3c-.1 0-.3-.2-.3-.2-.4-.4-.8-.7-1.1-1.1-.9-.7-1.7-1.6-2.4-2.6-.2-.5-.4-1.1.6-2 .3-.2.6-.4.9-.5.8-.3 1.6-.6 2.4-.8s1.5-.4 2.2-.7c.6-.2 1.1-.6 1.4-1.1.7-1.2 1.6-2.4 2.6-3.5q.6-.75 1.5-1.2h.2c.2-.1.3-.2.5-.1l1 1.5c1.6 2.6 3.6 5.2 5.4 7.8 4 5.3 8.1 10.9 9.4 17.4v.6c.3.8.4 1.6.5 2.3 0 .4 0 .7-.1 1.1-.1.1-.2.3-.4.4h-.2c-.7.7-1.5 1.2-2.3 1.6-.1 0-.3.1-.4.2-.5 0-.9 0-1.4-.1-.4-.1-.8-.2-1.2-.2h-.5c-1.6.9-3 1.8-4.4 2.9s-2.9 2-4.5 2.8Z" class="st8"/></g></svg>